<svg width="32" height="37" viewBox="0 0 32 37" fill="none" xmlns="http://www.w3.org/2000/svg">
<g clip-path="url(#clip0_6_208)">
<path fill-rule="evenodd" clip-rule="evenodd" d="M29.79 3.77001V5.43001C29.7882 5.50401 29.76 5.57494 29.7105 5.62997C29.661 5.68499 29.5934 5.72048 29.52 5.73001L16.28 7.36001H16.2C16.1373 7.36954 16.0734 7.36542 16.0125 7.34793C15.9515 7.33045 15.8951 7.30001 15.8471 7.2587C15.799 7.2174 15.7604 7.16619 15.734 7.1086C15.7075 7.05101 15.6939 6.98838 15.6939 6.92501C15.6939 6.86164 15.7075 6.79901 15.734 6.74142C15.7604 6.68382 15.799 6.63262 15.8471 6.59131C15.8951 6.55001 15.9515 6.51957 16.0125 6.50209C16.0734 6.4846 16.1373 6.48048 16.2 6.49001L28.65 5.00001C28.7234 4.98651 28.7901 4.94849 28.8392 4.89219C28.8882 4.83588 28.9167 4.76461 28.92 4.69001V3.79001C28.9105 3.72735 28.9146 3.66338 28.9321 3.60247C28.9496 3.54156 28.98 3.48514 29.0213 3.43707C29.0626 3.38901 29.1138 3.35044 29.1714 3.324C29.229 3.29755 29.2916 3.28386 29.355 3.28386C29.4184 3.28386 29.481 3.29755 29.5386 3.324C29.5962 3.35044 29.6474 3.38901 29.6887 3.43707C29.73 3.48514 29.7604 3.54156 29.7779 3.60247C29.7954 3.66338 29.7995 3.72735 29.79 3.79001V3.77001ZM28.79 21.45C29.4206 22.1112 29.7778 22.9864 29.79 23.9C29.79 26.08 27.73 27.9 25.19 27.9C25.1273 27.9095 25.0634 27.9054 25.0025 27.8879C24.9415 27.8704 24.8851 27.84 24.8371 27.7987C24.789 27.7574 24.7504 27.7062 24.724 27.6486C24.6975 27.591 24.6839 27.5284 24.6839 27.465C24.6839 27.4016 24.6975 27.339 24.724 27.2814C24.7504 27.2238 24.789 27.1726 24.8371 27.1313C24.8851 27.09 24.9415 27.0596 25.0025 27.0421C25.0634 27.0246 25.1273 27.0205 25.19 27.03C27.19 27.03 28.91 25.65 28.91 23.95C28.9091 23.2183 28.6178 22.5169 28.1 22C28.0612 21.9604 28.0306 21.9135 28.01 21.862C27.9894 21.8105 27.9792 21.7555 27.98 21.7C27.9814 21.6085 28.0112 21.5197 28.0654 21.446C28.1196 21.3722 28.1955 21.3173 28.2824 21.2886C28.3693 21.26 28.463 21.2592 28.5504 21.2864C28.6378 21.3135 28.7146 21.3672 28.77 21.44L28.79 21.45ZM25.19 20.83C25.3067 20.83 25.4186 20.7836 25.5011 20.7011C25.5836 20.6186 25.63 20.5067 25.63 20.39C25.63 20.2733 25.5836 20.1614 25.5011 20.0789C25.4186 19.9964 25.3067 19.95 25.19 19.95C22.65 19.95 20.59 21.72 20.59 23.9C20.6007 24.8169 20.9579 25.6957 21.59 26.36C21.6268 26.4058 21.6725 26.4438 21.7243 26.4717C21.7761 26.4996 21.8329 26.5168 21.8915 26.5224C21.95 26.5279 22.0091 26.5217 22.0652 26.504C22.1213 26.4863 22.1733 26.4576 22.218 26.4195C22.2628 26.3814 22.2995 26.3347 22.326 26.2821C22.3524 26.2296 22.368 26.1723 22.372 26.1136C22.3759 26.0549 22.368 25.996 22.3487 25.9405C22.3295 25.8849 22.2993 25.8337 22.26 25.79C21.7622 25.2858 21.4791 24.6085 21.47 23.9C21.47 22.21 23.14 20.83 25.2 20.83H25.19ZM10 28.09C10.6321 28.7543 10.9893 29.6331 11 30.55C11 32.73 8.94 34.5 6.4 34.5C6.2833 34.5 6.17139 34.4537 6.08887 34.3711C6.00636 34.2886 5.96 34.1767 5.96 34.06C5.96 33.9433 6.00636 33.8314 6.08887 33.7489C6.17139 33.6664 6.2833 33.62 6.4 33.62C8.46 33.62 10.13 32.24 10.13 30.55C10.1194 29.8389 9.83666 29.159 9.34 28.65C9.26424 28.5683 9.22148 28.4614 9.22 28.35C9.21848 28.2559 9.24718 28.1638 9.30189 28.0872C9.3566 28.0106 9.43443 27.9535 9.52394 27.9245C9.61346 27.8954 9.70995 27.8957 9.79924 27.9255C9.88852 27.9553 9.9659 28.013 10.02 28.09H10ZM6.39 27.48C6.44787 27.475 6.50417 27.4586 6.55566 27.4317C6.60715 27.4048 6.65281 27.368 6.68999 27.3233C6.72718 27.2787 6.75516 27.2272 6.77233 27.1717C6.78949 27.1162 6.7955 27.0578 6.79 27C6.79137 26.9419 6.78092 26.884 6.7593 26.83C6.73767 26.776 6.70531 26.727 6.66418 26.6858C6.62304 26.6447 6.57399 26.6123 6.51999 26.5907C6.46598 26.5691 6.40816 26.5586 6.35 26.56C3.81 26.56 1.75 28.33 1.75 30.51C1.7622 31.4236 2.11942 32.2988 2.75 32.96C2.80544 33.0328 2.88221 33.0865 2.9696 33.1136C3.057 33.1408 3.15068 33.14 3.2376 33.1114C3.32452 33.0828 3.40037 33.0278 3.45457 32.954C3.50877 32.8803 3.53863 32.7915 3.54 32.7C3.54136 32.6445 3.53143 32.5893 3.5108 32.5377C3.49017 32.4861 3.45928 32.4393 3.42 32.4C2.92043 31.897 2.63698 31.2189 2.63 30.51C2.63 28.81 4.3 27.44 6.35 27.44L6.39 27.48ZM12.8 30.55C12.8 33.95 9.65 36.25 6.42 36.25C3.19 36.25 0 34 0 30.55C0 27.1 3.15 24.84 6.38 24.84C7.70908 24.8432 9.00978 25.2248 10.13 25.94V9.00001V3.91001C10.1358 3.5111 10.2841 3.12743 10.5483 2.82845C10.8124 2.52946 11.1748 2.33491 11.57 2.28001L29.89 8.39587e-06C30.0984 -0.027159 30.3101 -0.00933778 30.511 0.0522706C30.7119 0.113879 30.8973 0.217842 31.0546 0.357152C31.2119 0.496462 31.3375 0.667881 31.423 0.859852C31.5085 1.05182 31.5518 1.25988 31.55 1.47001V7.22001V23.9C31.55 27.31 28.4 29.61 25.17 29.61C21.94 29.61 18.79 27.31 18.79 23.9C18.79 20.49 21.94 18.2 25.17 18.2C26.4991 18.2032 27.7998 18.5848 28.92 19.3V7.56001L26.32 7.88001L14.94 9.28001L12.76 9.55001V30.55H12.8ZM30.67 23.9V7.34001V1.48001C30.6722 1.39448 30.6559 1.30948 30.622 1.23092C30.5881 1.15235 30.5375 1.08209 30.4738 1.02501C30.4101 0.967932 30.3347 0.925399 30.2529 0.900361C30.171 0.875322 30.0848 0.868378 30 0.880008L11.68 3.15001C11.4961 3.17618 11.3276 3.2671 11.2048 3.40642C11.082 3.54573 11.0129 3.72431 11.01 3.91001V27.91C10.4631 27.2072 9.75986 26.6415 8.95616 26.2579C8.15246 25.8743 7.2704 25.6832 6.38 25.7C3.38 25.7 0.88 27.86 0.88 30.53C0.88 33.2 3.34 35.35 6.38 35.35C9.42 35.35 11.88 33.19 11.88 30.53V8.78001L12.76 8.67001L29.76 6.56001V21.29C29.2152 20.5874 28.5138 20.0217 27.7117 19.638C26.9096 19.2543 26.029 19.0632 25.14 19.08C22.14 19.08 19.63 21.24 19.63 23.9C19.63 26.56 22.1 28.73 25.14 28.73C28.18 28.73 30.64 26.57 30.64 23.9H30.67ZM11.88 5.90001V4.28001C11.888 4.21016 11.9188 4.14489 11.9676 4.09428C12.0164 4.04367 12.0805 4.01054 12.15 4.00001L25.4 2.35001H25.47C25.5867 2.35001 25.6986 2.39637 25.7811 2.47888C25.8636 2.5614 25.91 2.67331 25.91 2.79001C25.91 2.9067 25.8636 3.01862 25.7811 3.10114C25.6986 3.18365 25.5867 3.23001 25.47 3.23001L13 4.73001C12.9258 4.74174 12.858 4.77923 12.8086 4.83592C12.7593 4.8926 12.7314 4.96485 12.73 5.04001V5.93001C12.73 6.0467 12.6836 6.15862 12.6011 6.24114C12.5186 6.32365 12.4067 6.37001 12.29 6.37001C12.1733 6.37001 12.0614 6.32365 11.9789 6.24114C11.8964 6.15862 11.85 6.0467 11.85 5.93001L11.88 5.90001Z" fill="black"/>
</g>
<defs>
<clipPath id="clip0_6_208">
<rect width="31.55" height="36.25" fill="white"/>
</clipPath>
</defs>
</svg>
