<svg width="43" height="37" viewBox="0 0 43 37" fill="none" xmlns="http://www.w3.org/2000/svg">
<g clip-path="url(#clip0_6_204)">
<path fill-rule="evenodd" clip-rule="evenodd" d="M8.89 31.9301C7.46354 31.0842 6.21123 29.9745 5.2 28.6601C5.08333 28.5241 5.00888 28.3571 4.98578 28.1795C4.96269 28.0018 4.99196 27.8213 5.07 27.6601C5.14106 27.4972 5.25875 27.359 5.40824 27.2629C5.55772 27.1668 5.73231 27.1171 5.91 27.1201H7.75C7.62434 26.642 7.61152 26.1412 7.71253 25.6573C7.81355 25.1734 8.02565 24.7196 8.33208 24.3317C8.63852 23.9438 9.03091 23.6324 9.47829 23.4222C9.92567 23.2119 10.4158 23.1085 10.91 23.1201C11.0303 22.8209 11.2093 22.5489 11.4366 22.3202C11.6638 22.0915 11.9347 21.9107 12.2331 21.7886C12.5314 21.6664 12.8513 21.6054 13.1737 21.6091C13.4961 21.6128 13.8145 21.6811 14.11 21.8101C14.3333 21.4071 14.639 21.0557 15.0072 20.7788C15.3753 20.5019 15.7977 20.3056 16.2467 20.2028C16.6958 20.0999 17.1615 20.0928 17.6135 20.182C18.0655 20.2711 18.4936 20.4544 18.87 20.7201C19.0948 20.5472 19.3442 20.409 19.61 20.3101L6.31 12.7201C6.20137 12.6605 6.10622 12.5791 6.03051 12.481C5.9548 12.3829 5.90015 12.2702 5.87 12.1501C5.8363 12.0296 5.82778 11.9035 5.84499 11.7796C5.86219 11.6558 5.90475 11.5368 5.97 11.4301C8.16542 7.75911 11.5542 4.9528 15.57 3.48006C17.9691 2.60137 20.5187 2.20727 23.0711 2.32056C25.6236 2.43385 28.1282 3.05228 30.44 4.14006L30.35 3.90006C30.28 3.68006 30.21 3.46006 30.16 3.24006C30.044 2.89726 29.9984 2.53459 30.0259 2.17375C30.0534 1.81292 30.1534 1.46134 30.32 1.14006C30.5074 0.810748 30.7747 0.533852 31.0971 0.33484C31.4196 0.135827 31.7869 0.0210868 32.1653 0.00117096C32.5437 -0.0187449 32.9211 0.0568032 33.2626 0.220867C33.6042 0.384931 33.899 0.632244 34.12 0.940061C34.4971 0.975838 34.8593 1.10543 35.1736 1.31703C35.4878 1.52863 35.7441 1.81551 35.919 2.15152C36.094 2.48753 36.1821 2.86198 36.1753 3.24075C36.1684 3.61952 36.0669 3.99056 35.88 4.32006C35.685 4.62427 35.4318 4.88691 35.1349 5.09286C34.838 5.29881 34.5032 5.44399 34.15 5.52006C33.93 5.59006 33.7 5.64006 33.48 5.69006H33.22C37.1346 8.32343 39.9295 12.319 41.0607 16.8994C42.1919 21.4797 41.5786 26.317 39.34 30.4701C39.2841 30.5806 39.2052 30.678 39.1086 30.7556C39.012 30.8332 38.9 30.8893 38.78 30.9201C38.661 30.9573 38.5355 30.9695 38.4116 30.9557C38.2877 30.9419 38.1679 30.9026 38.06 30.8401L37.64 30.6001C37.5965 30.6714 37.5463 30.7384 37.49 30.8001L36.83 31.4601C36.7438 31.5381 36.6459 31.6022 36.54 31.6501L36.01 31.8801H41.41C41.549 31.8781 41.6865 31.9088 41.8116 31.9695C41.9366 32.0303 42.0457 32.1195 42.13 32.2301C42.2214 32.3376 42.2862 32.4652 42.3192 32.6024C42.3522 32.7396 42.3525 32.8827 42.32 33.0201C42.1086 34.012 41.5654 34.9022 40.7801 35.5439C39.9947 36.1856 39.0141 36.5405 38 36.5501H5.92C4.90932 36.5476 3.92945 36.2019 3.14095 35.5696C2.35245 34.9374 1.80207 34.056 1.58 33.0701C1.5475 32.9327 1.54777 32.7896 1.58077 32.6524C1.61378 32.5152 1.6786 32.3876 1.77 32.2801C1.85434 32.1695 1.96339 32.0803 2.08842 32.0195C2.21346 31.9588 2.35099 31.9281 2.49 31.9301H8.89ZM23 4.19006H23.05C25.8251 4.32865 28.5283 5.12009 30.94 6.50006C34.7244 8.62549 37.5678 12.1002 38.9025 16.2303C40.2372 20.3604 39.9649 24.8419 38.14 28.7801L33.86 26.3301L17.23 16.8101C17.1459 16.7715 17.0747 16.7095 17.025 16.6314C16.9754 16.5533 16.9493 16.4626 16.95 16.3701C16.95 16.3097 16.9619 16.2498 16.985 16.194C17.0081 16.1382 17.042 16.0875 17.0847 16.0448C17.1274 16.0021 17.1782 15.9682 17.234 15.9451C17.2898 15.922 17.3496 15.9101 17.41 15.9101C17.4939 15.9087 17.5766 15.9294 17.65 15.9701L37.7 27.4501C39.1171 23.7857 39.1674 19.7336 37.8415 16.0352C36.5157 12.3368 33.9025 9.23949 30.48 7.31006C28.1937 6.00171 25.6309 5.25137 23 5.12006C22.9332 5.12988 22.8651 5.1252 22.8003 5.10634C22.7355 5.08748 22.6755 5.05488 22.6244 5.01075C22.5733 4.96663 22.5323 4.91203 22.5043 4.85065C22.4762 4.78927 22.4616 4.72256 22.4616 4.65506C22.4616 4.58756 22.4762 4.52085 22.5043 4.45947C22.5323 4.3981 22.5733 4.34349 22.6244 4.29937C22.6755 4.25525 22.7355 4.22265 22.8003 4.20378C22.8651 4.18492 22.9332 4.18024 23 4.19006ZM11.47 12.5201C11.5586 12.5171 11.6459 12.5415 11.72 12.5901L15.53 14.7701C15.6166 14.8235 15.6835 14.9035 15.7207 14.9982C15.7579 15.0928 15.7634 15.197 15.7364 15.2951C15.7093 15.3932 15.6512 15.4798 15.5707 15.542C15.4902 15.6042 15.3917 15.6386 15.29 15.6401C15.2097 15.6381 15.131 15.6175 15.06 15.5801L11.28 13.4201C11.1989 13.383 11.1298 13.324 11.0803 13.2498C11.0309 13.1757 11.0031 13.0892 11 13.0001C11.0026 12.8772 11.0533 12.7602 11.1411 12.6742C11.229 12.5882 11.3471 12.54 11.47 12.5401V12.5201ZM12.68 20.0801L12.87 19.9001C13.0576 19.7225 13.2071 19.5085 13.3092 19.2713C13.4113 19.034 13.464 18.7784 13.464 18.5201C13.464 18.2617 13.4113 18.0061 13.3092 17.7689C13.2071 17.5316 13.0576 17.3176 12.87 17.1401L12.68 16.9601C12.6379 16.9146 12.5868 16.8784 12.53 16.8536C12.4733 16.8288 12.412 16.816 12.35 16.816C12.288 16.816 12.2267 16.8288 12.17 16.8536C12.1132 16.8784 12.0621 16.9146 12.02 16.9601C11.9333 17.048 11.8847 17.1666 11.8847 17.2901C11.8847 17.4136 11.9333 17.5321 12.02 17.6201L12.21 17.8001C12.3068 17.8933 12.3838 18.0052 12.4363 18.1289C12.4889 18.2526 12.516 18.3856 12.516 18.5201C12.516 18.6545 12.4889 18.7875 12.4363 18.9112C12.3838 19.0349 12.3068 19.1468 12.21 19.2401L12.03 19.4201C11.8585 19.605 11.7632 19.8479 11.7632 20.1001C11.7632 20.3523 11.8585 20.5951 12.03 20.7801C12.1179 20.8668 12.2365 20.9154 12.36 20.9154C12.4835 20.9154 12.6021 20.8668 12.69 20.7801C12.7341 20.7372 12.7692 20.6859 12.7932 20.6292C12.8172 20.5725 12.8295 20.5116 12.8295 20.4501C12.8295 20.3885 12.8172 20.3276 12.7932 20.2709C12.7692 20.2142 12.7341 20.1629 12.69 20.1201L12.68 20.0801ZM9.94 18.6501L10.12 18.8301C10.3087 19.006 10.4591 19.2188 10.562 19.4554C10.6648 19.6919 10.7179 19.9471 10.7179 20.2051C10.7179 20.463 10.6648 20.7182 10.562 20.9547C10.4591 21.1913 10.3087 21.4042 10.12 21.5801L9.93 21.7701C9.83961 21.8412 9.72629 21.8767 9.61148 21.8699C9.49667 21.863 9.38835 21.8144 9.30703 21.733C9.2257 21.6517 9.17702 21.5434 9.1702 21.4286C9.16337 21.3138 9.19888 21.2004 9.27 21.1101L9.46 21.0001C9.55525 20.9069 9.63092 20.7957 9.68259 20.6729C9.73426 20.5501 9.76087 20.4183 9.76087 20.2851C9.76087 20.1518 9.73426 20.02 9.68259 19.8972C9.63092 19.7744 9.55525 19.6632 9.46 19.5701L9.28 19.3901C9.18803 19.3023 9.11482 19.1968 9.06481 19.0799C9.01479 18.963 8.989 18.8372 8.989 18.7101C8.989 18.5829 9.01479 18.4571 9.06481 18.3402C9.11482 18.2234 9.18803 18.1178 9.28 18.0301C9.37038 17.9589 9.48371 17.9234 9.59852 17.9303C9.71332 17.9371 9.82164 17.9858 9.90297 18.0671C9.98429 18.1484 10.033 18.2567 10.0398 18.3715C10.0466 18.4864 10.0111 18.5997 9.94 18.6901V18.6501ZM8.73 27.1201H31.48L20.89 21.0701C20.3309 21.0257 19.7761 21.1975 19.34 21.5501C19.2045 21.6563 19.0372 21.714 18.865 21.714C18.6928 21.714 18.5255 21.6563 18.39 21.5501C18.1173 21.3401 17.8014 21.1935 17.4651 21.1207C17.1287 21.048 16.7804 21.051 16.4454 21.1295C16.1104 21.2079 15.797 21.36 15.528 21.5746C15.2589 21.7891 15.041 22.0609 14.89 22.3701C14.8452 22.4631 14.7824 22.5463 14.7052 22.6149C14.6279 22.6834 14.5379 22.736 14.4402 22.7695C14.3425 22.8029 14.2392 22.8167 14.1362 22.8099C14.0331 22.8032 13.9325 22.776 13.84 22.7301C13.6497 22.6308 13.44 22.5742 13.2256 22.5641C13.0112 22.554 12.7972 22.5907 12.5983 22.6715C12.3995 22.7524 12.2207 22.8755 12.0742 23.0324C11.9277 23.1893 11.8171 23.3762 11.75 23.5801C11.6721 23.7347 11.5516 23.8639 11.4028 23.9524C11.254 24.041 11.0831 24.0853 10.91 24.0801C10.2998 24.0773 9.71316 24.3151 9.27705 24.7419C8.84095 25.1686 8.59051 25.75 8.58 26.3601C8.58444 26.6203 8.63523 26.8777 8.73 27.1201ZM3.05 14.7701C3.33183 14.4946 3.67434 14.2891 4.05 14.1701C4.37825 14.0688 4.72337 14.0338 5.06525 14.0672C5.40714 14.1006 5.73898 14.2017 6.04143 14.3645C6.34389 14.5274 6.61092 14.7488 6.82699 15.0159C7.04307 15.2829 7.20385 15.5903 7.3 15.9201C7.40116 16.3289 7.41876 16.754 7.35175 17.1698C7.28474 17.5857 7.13449 17.9837 6.91 18.3401C6.78 18.5901 6.64 18.8301 6.5 19.0601C6.15729 19.5937 5.77629 20.1017 5.36 20.5801C5.23223 20.7377 5.05954 20.8527 4.86485 20.9099C4.67016 20.967 4.4627 20.9636 4.27 20.9001C3.66124 20.7282 3.06623 20.511 2.49 20.2501C2.24 20.1301 1.99 20.0001 1.75 19.8601C1.36864 19.6847 1.02673 19.4339 0.744876 19.1228C0.463024 18.8117 0.247061 18.4468 0.109999 18.0501C-0.0829719 17.3924 -0.00841993 16.6851 0.317436 16.082C0.643293 15.479 1.19409 15.0291 1.85 14.8301C2.24047 14.7205 2.65055 14.7 3.05 14.7701ZM2.12 15.7701C2.32667 15.7085 2.54345 15.6883 2.75795 15.7106C2.97244 15.7329 3.18042 15.7973 3.37 15.9001C3.53323 15.6273 3.77133 15.4072 4.056 15.2658C4.34067 15.1244 4.65994 15.0678 4.97588 15.1025C5.29182 15.1373 5.59114 15.262 5.83827 15.4619C6.0854 15.6617 6.26996 15.9284 6.37 16.2301C6.49225 16.8245 6.37355 17.4431 6.04 17.9501C5.92 18.1901 5.8 18.4001 5.67 18.6101C5.36906 19.1008 5.02788 19.5658 4.65 20.0001C4.59 20.0701 4.65 20.0701 4.53 20.0001C3.96379 19.8478 3.41175 19.6471 2.88 19.4001C2.64973 19.2972 2.42598 19.1803 2.21 19.0501C1.93355 18.9302 1.68399 18.756 1.47614 18.5378C1.26829 18.3197 1.10637 18.062 0.999999 17.7801C0.938688 17.5719 0.919033 17.3537 0.94216 17.138C0.965287 16.9222 1.03074 16.7132 1.13477 16.5227C1.23881 16.3323 1.37938 16.1643 1.54844 16.0283C1.7175 15.8923 1.91172 15.7909 2.12 15.7301V15.7701ZM33.45 27.1801C33.5067 27.1949 33.5607 27.2185 33.61 27.2501L36.61 28.9701L38.54 30.0801C40.7794 25.8892 41.286 20.9872 39.951 16.4269C38.616 11.8666 35.5459 8.01169 31.4 5.69006C27.2977 3.29572 22.4198 2.60598 17.8145 3.76901C13.2091 4.93203 9.24364 7.85504 6.77 11.9101L33.45 27.1801ZM36.14 29.7901L33.14 28.0601H5.91C7.23117 29.8528 9.06535 31.2022 11.17 31.9301H33.64L36.17 30.8401L36.83 30.1901L36.14 29.7901ZM33 1.11006C33.304 1.2846 33.5268 1.57211 33.62 1.91006C33.8806 1.83367 34.1583 1.83888 34.4159 1.92499C34.6734 2.01111 34.8984 2.174 35.0607 2.39177C35.2229 2.60954 35.3146 2.87176 35.3234 3.14318C35.3323 3.4146 35.2578 3.68222 35.11 3.91006C34.8336 4.31233 34.4095 4.58909 33.93 4.68006C33.73 4.74006 33.53 4.78006 33.34 4.82006C32.8782 4.91115 32.4102 4.96798 31.94 4.99006C31.87 4.99006 31.89 4.99006 31.85 4.94006C31.6269 4.5268 31.4396 4.09523 31.29 3.65006C31.22 3.46006 31.17 3.27006 31.11 3.07006C30.9476 2.60566 30.9727 2.09624 31.18 1.65006C31.2638 1.49487 31.3774 1.35776 31.5144 1.24658C31.6513 1.1354 31.8088 1.05235 31.9779 1.00218C32.147 0.952007 32.3243 0.935712 32.4997 0.954226C32.6751 0.972739 32.8451 1.0257 33 1.11006ZM33.7 32.8601H2.49C2.66477 33.6397 3.09955 34.3366 3.72289 34.8364C4.34624 35.3361 5.12105 35.609 5.92 35.6101H38C38.799 35.609 39.5738 35.3361 40.1971 34.8364C40.8204 34.3366 41.2552 33.6397 41.43 32.8601H33.7Z" fill="black"/>
</g>
<defs>
<clipPath id="clip0_6_204">
<rect width="42.34" height="36.55" fill="white"/>
</clipPath>
</defs>
</svg>
