<svg width="36" height="45" viewBox="0 0 36 45" fill="none" xmlns="http://www.w3.org/2000/svg">
<g clip-path="url(#clip0_6_133)">
<path fill-rule="evenodd" clip-rule="evenodd" d="M20.48 9.22C24.9898 9.85894 29.0896 12.1838 31.9531 15.726C34.8166 19.2681 36.2307 23.7641 35.9104 28.3076C35.5902 32.8512 33.5593 37.1044 30.2273 40.2098C26.8953 43.3153 22.5098 45.042 17.955 45.042C13.4002 45.042 9.01474 43.3153 5.6827 40.2098C2.35066 37.1044 0.319813 32.8512 -0.000448838 28.3076C-0.320711 23.7641 1.09343 19.2681 3.9569 15.726C6.82037 12.1838 10.9202 9.85894 15.43 9.22L11.48 4C11.3639 3.8326 11.3016 3.63373 11.3016 3.43C11.3016 3.22627 11.3639 3.02739 11.48 2.86L11.68 2.58L13.23 0.399998C13.3201 0.279772 13.4361 0.181381 13.5694 0.112132C13.7027 0.0428834 13.8499 0.00455648 14 -1.89577e-06H21.9C22.0527 -0.00171501 22.2036 0.033814 22.3395 0.103511C22.4754 0.173207 22.5923 0.274972 22.68 0.399998L24.45 2.86C24.5661 3.02739 24.6284 3.22627 24.6284 3.43C24.6284 3.63373 24.5661 3.8326 24.45 4L20.48 9.22ZM19.13 11C23.2605 11.3042 27.1121 13.1981 29.8749 16.2837C32.6377 19.3692 34.0964 23.4058 33.9442 27.5447C33.792 31.6836 32.0408 35.6022 29.0589 38.4765C26.077 41.3508 22.0967 42.9568 17.955 42.9568C13.8133 42.9568 9.83301 41.3508 6.85109 38.4765C3.86917 35.6022 2.11799 31.6836 1.96581 27.5447C1.81363 23.4058 3.27231 19.3692 6.0351 16.2837C8.79789 13.1981 12.6495 11.3042 16.78 11L16.1 10.09C11.7781 10.5644 7.80222 12.6768 4.98996 15.9927C2.1777 19.3086 0.742827 23.576 0.980397 27.9174C1.21797 32.2588 3.10992 36.3441 6.26721 39.3334C9.4245 42.3226 13.6071 43.9885 17.955 43.9885C22.3029 43.9885 26.4855 42.3226 29.6428 39.3334C32.8001 36.3441 34.692 32.2588 34.9296 27.9174C35.1672 23.576 33.7323 19.3086 30.92 15.9927C28.1078 12.6768 24.1319 10.5644 19.81 10.09L19.13 11ZM18 11.93C15.0193 11.9181 12.1021 12.791 9.61787 14.4382C7.13361 16.0853 5.19399 18.4326 4.04464 21.1828C2.89528 23.933 2.58789 26.9624 3.16138 29.8874C3.73487 32.8125 5.16345 35.5015 7.26622 37.6141C9.36898 39.7267 12.0514 41.1678 14.9737 41.7549C17.896 42.342 20.9268 42.0487 23.6823 40.9121C26.4379 39.7756 28.7942 37.8469 30.4528 35.3704C32.1115 32.8938 32.998 29.9807 33 27C33.0027 23.0145 31.4254 19.1904 28.6138 16.3657C25.8022 13.5409 21.9855 11.9459 18 11.93ZM23.15 4.1H12.76L18 11L23.15 4.1ZM12.44 3.1H23.44L21.9 0.999998H14L12.44 3.14V3.1Z" fill="black"/>
</g>
<defs>
<clipPath id="clip0_6_133">
<rect width="35.89" height="44.93" fill="white"/>
</clipPath>
</defs>
</svg>
