<svg width="42" height="41" viewBox="0 0 42 41" fill="none" xmlns="http://www.w3.org/2000/svg">
<g clip-path="url(#clip0_6_200)">
<path fill-rule="evenodd" clip-rule="evenodd" d="M5.32 9.00002H9.53L12.31 13.59H10.12L8.43 11.76C8.38667 11.7097 8.33295 11.6693 8.27253 11.6417C8.21212 11.614 8.14643 11.5998 8.08 11.6C7.9908 11.6 7.90353 11.6259 7.82879 11.6746C7.75405 11.7233 7.69508 11.7926 7.65905 11.8742C7.62302 11.9558 7.61149 12.0461 7.62586 12.1341C7.64023 12.2222 7.67989 12.3041 7.74 12.37C9.22 13.94 14.19 19.64 16.68 21.67C16.9824 21.9283 17.3189 22.1436 17.68 22.31C17.83 22.37 18.02 22.49 18.17 22.54C18.643 22.6894 19.1342 22.7735 19.63 22.79C19.9674 22.799 20.3043 22.7586 20.63 22.67C20.8845 22.6164 21.1325 22.5359 21.37 22.43C21.49 22.37 22.02 22.11 22.18 22C23.1231 21.3311 24.0064 20.5816 24.82 19.76L25.82 18.76C25.8769 18.7145 25.9226 18.6566 25.9538 18.5908C25.985 18.5249 26.0008 18.4529 26 18.38C26 18.258 25.9515 18.141 25.8653 18.0548C25.779 17.9685 25.662 17.92 25.54 17.92C25.4798 17.9197 25.4203 17.9319 25.3651 17.9561C25.31 17.9802 25.2606 18.0156 25.22 18.06C24.103 19.3329 22.8257 20.4556 21.42 21.4C20.8844 21.7014 20.2842 21.8694 19.67 21.89C19.0842 21.8937 18.5079 21.7419 18 21.45C16.8629 20.7313 15.8497 19.8329 15 18.79L11 14.47H26.84C27.5339 15.1662 28.3423 15.7379 29.23 16.16L29.4 16L20.32 25.73C20.2401 25.8204 20.1414 25.8923 20.0309 25.9406C19.9204 25.989 19.8006 26.0127 19.68 26.01H19.6C19.3859 25.994 19.1859 25.8975 19.04 25.74L4.68 10.46C4.5737 10.3329 4.50499 10.1787 4.48159 10.0147C4.45819 9.8507 4.48103 9.68341 4.54754 9.53168C4.61405 9.37995 4.7216 9.24979 4.85807 9.15586C4.99454 9.06193 5.15452 9.00796 5.32 9.00002ZM10.62 9.00002H33.91C34.0849 8.99837 34.2563 9.04885 34.4023 9.14503C34.5484 9.24121 34.6624 9.37872 34.73 9.54002C34.8041 9.70475 34.8275 9.88782 34.7973 10.0659C34.767 10.244 34.6844 10.409 34.56 10.54L29.9 15.54C28.9112 15.1191 28.0229 14.4932 27.2937 13.7037C26.5646 12.9143 26.0112 11.9791 25.67 10.96C25.6554 10.8513 25.6016 10.7518 25.5187 10.6799C25.4359 10.6081 25.3296 10.569 25.22 10.57C25.1596 10.57 25.0998 10.5819 25.044 10.605C24.9882 10.6282 24.9374 10.662 24.8947 10.7048C24.852 10.7475 24.8181 10.7982 24.795 10.854C24.7719 10.9098 24.76 10.9696 24.76 11.03C24.7551 11.0699 24.7551 11.1102 24.76 11.15C25.0452 12.0312 25.4743 12.859 26.03 13.6H13.4L10.62 9.00002ZM5.05 1.56002L0.539998 2.78002C0.446597 2.80346 0.348085 2.79561 0.259574 2.75768C0.171062 2.71974 0.0974392 2.65382 0.0499981 2.57002C0.00434967 2.46115 -0.00572463 2.34063 0.0212143 2.22569C0.0481533 2.11076 0.110727 2.00727 0.199998 1.93002C0.339998 1.85002 0.309998 1.88002 0.359998 1.87002L5.15 0.570019C5.24775 0.547603 5.35002 0.55572 5.44301 0.593273C5.536 0.630827 5.61523 0.696009 5.67 0.780019L10.06 8.00002H24.39C24.4895 6.3458 25.0711 4.75688 26.0628 3.42919C27.0546 2.1015 28.4132 1.09308 29.9712 0.528291C31.5292 -0.0364991 33.2184 -0.13297 34.8306 0.250774C36.4428 0.634518 37.9074 1.4817 39.0439 2.68785C40.1803 3.894 40.9389 5.40639 41.2262 7.03852C41.5134 8.67065 41.3167 10.3512 40.6603 11.8728C40.0039 13.3945 38.9165 14.6908 37.5322 15.6019C36.1479 16.513 34.5272 16.999 32.87 17C31.9457 16.9986 31.0276 16.8501 30.15 16.56L21 26.34C20.7563 26.6035 20.4394 26.788 20.09 26.87V39.36H26.15C26.2712 39.3626 26.3867 39.4119 26.4724 39.4976C26.5582 39.5833 26.6074 39.6988 26.61 39.82C26.61 39.942 26.5615 40.059 26.4753 40.1453C26.389 40.2316 26.272 40.28 26.15 40.28H13.15C13.028 40.28 12.911 40.2316 12.8247 40.1453C12.7385 40.059 12.69 39.942 12.69 39.82C12.6925 39.6988 12.7418 39.5833 12.8276 39.4976C12.9133 39.4119 13.0288 39.3626 13.15 39.36H19.21V26.84C18.9127 26.7455 18.6442 26.5768 18.43 26.35L4 11.1C3.7479 10.8402 3.579 10.5112 3.51487 10.1549C3.45074 9.79868 3.49431 9.43139 3.64 9.10002C3.77906 8.77051 4.01313 8.48989 4.31235 8.29398C4.61157 8.09806 4.96237 7.99572 5.32 8.00002H9L5.05 1.56002ZM30.85 15.79C31.5023 15.9654 32.1745 16.0561 32.85 16.06C34.3288 16.0596 35.7751 15.626 37.0102 14.8129C38.2454 13.9998 39.2154 12.8427 39.8003 11.4845C40.3853 10.1263 40.5597 8.62653 40.3019 7.17038C40.0441 5.71423 39.3654 4.36547 38.3497 3.29066C37.334 2.21586 36.0258 1.46208 34.5865 1.12241C33.1473 0.782749 31.6401 0.872071 30.251 1.37935C28.8619 1.88663 27.6519 2.78965 26.7702 3.9769C25.8886 5.16414 25.374 6.58361 25.29 8.06002H31.74L28.34 4.62002C28.2539 4.53377 28.2055 4.41689 28.2055 4.29502C28.2055 4.17315 28.2539 4.05626 28.34 3.97002C28.4318 3.88718 28.5526 3.84387 28.6762 3.84949C28.7997 3.8551 28.9161 3.90919 29 4.00002L32.41 7.41002V2.55002C32.41 2.42802 32.4585 2.31102 32.5447 2.22475C32.631 2.13848 32.748 2.09002 32.87 2.09002C32.9912 2.09257 33.1067 2.14186 33.1924 2.22757C33.2782 2.31329 33.3274 2.42882 33.33 2.55002V7.38002L36.74 4.00002C36.8273 3.91953 36.9424 3.87593 37.0611 3.87834C37.1799 3.88076 37.2931 3.929 37.377 4.01298C37.461 4.09696 37.5093 4.21016 37.5117 4.32889C37.5141 4.44763 37.4705 4.5627 37.39 4.65002L34 8.00002H38.8C38.8604 8.00002 38.9202 8.01192 38.976 8.03503C39.0318 8.05815 39.0826 8.09204 39.1253 8.13475C39.168 8.17747 39.2019 8.22818 39.225 8.28399C39.2481 8.3398 39.26 8.39961 39.26 8.46002C39.2737 8.52701 39.272 8.59625 39.255 8.66248C39.238 8.7287 39.2061 8.79018 39.1617 8.84224C39.1174 8.89429 39.0618 8.93556 38.9991 8.9629C38.9364 8.99024 38.8683 9.00293 38.8 9.00002H35.49C35.5208 9.05809 35.5475 9.11824 35.57 9.18002C35.6663 9.40434 35.7159 9.6459 35.7159 9.89002C35.7159 10.1341 35.6663 10.3757 35.57 10.6L37.38 12.41C37.4605 12.4973 37.5041 12.6124 37.5017 12.7311C37.4993 12.8499 37.451 12.9631 37.367 13.0471C37.2831 13.131 37.1699 13.1793 37.0511 13.1817C36.9324 13.1841 36.8173 13.1405 36.73 13.06L35 11.3L35.2 11.09L33 13.47L32.41 14.11L30.85 15.79Z" fill="black"/>
</g>
<defs>
<clipPath id="clip0_6_200">
<rect width="41.36" height="40.28" fill="white"/>
</clipPath>
</defs>
</svg>
