<svg xmlns="http://www.w3.org/2000/svg" xmlns:xlink="http://www.w3.org/1999/xlink" version="1.1" x="0px" y="0px" viewBox="0 0 135.7 68.2" style="enable-background:new 0 0 135.7 68.2;" xml:space="preserve" width="135.7"  height="68.2" >
<style type="text/css">
	.st0{fill:none;stroke:#81948B;stroke-width:2;stroke-linecap:round;stroke-miterlimit:10;}
</style>
<g id="Capa_1">
	<circle class="st0" cx="44.2" cy="57.1" r="8.8"/>
	<circle class="st0" cx="106.5" cy="57.1" r="8.8"/>
</g>
<g id="gas3">
	<line class="st0" x1="8.9" y1="36.4" x2="16.7" y2="36.4"/>
</g>
<g id="gas2">
	<line class="st0" x1="1" y1="43.2" x2="15.2" y2="43.2"/>
</g>
<g id="gas1">
	<line class="st0" x1="8.9" y1="50" x2="16.7" y2="50"/>
</g>
<g id="pisoMovimiento">
	<g>
		<line class="st0" x1="46.9" y1="67.2" x2="60.7" y2="67.2"/>
		<line class="st0" x1="28.2" y1="67.2" x2="42" y2="67.2"/>
		<line class="st0" x1="9.5" y1="67.2" x2="23.3" y2="67.2"/>
	</g>
</g>
<g id="piso">
	<line class="st0" x1="1.4" y1="67.2" x2="134.7" y2="67.2"/>
</g>
<g id="cabina">
	<g>
		<line class="st0" x1="92.7" y1="57.4" x2="57.1" y2="57.4"/>
		<path class="st0" d="M31.3,57.4h-4c-2.8,0-5.1-2.5-5.1-5.6V6.6c0-3.1,2.3-5.6,5.1-5.6h92.4c2.8,0,5.1,2.5,5.1,5.6l4.6,21.1v24.2    c0,3.1-2.3,5.6-5.1,5.6h-5"/>
		<path class="st0" d="M55.4,30.8H32.6c-1.7,0-3-1.3-3-3V11.6c0-1.7,1.3-3,3-3h22.9c1.7,0,3,1.3,3,3v16.2    C58.4,29.5,57.1,30.8,55.4,30.8z"/>
		<path class="st0" d="M91.2,30.8H68.4c-1.7,0-3-1.3-3-3V11.6c0-1.7,1.3-3,3-3h22.9c1.7,0,3,1.3,3,3v16.2    C94.2,29.5,92.9,30.8,91.2,30.8z"/>
		<path class="st0" d="M129.3,35.7l-25.1-4.8c-1.7,0-3.1-1.5-3.1-3.4V12c0-1.9,1.4-3.4,3.1-3.4h20.6"/>
		<line class="st0" x1="44.2" y1="9.1" x2="44.2" y2="30.4"/>
		<line class="st0" x1="79.8" y1="9.1" x2="79.8" y2="30.4"/>
		<line class="st0" x1="100" y1="37.5" x2="105.6" y2="37.5"/>
	</g>
</g>
</svg>