<svg xmlns:xlink="http://www.w3.org/1999/xlink" xmlns="http://www.w3.org/2000/svg" viewBox="0 0 607 607" width="607" height="607" preserveAspectRatio="xMidYMid meet" style="width: 100%; height: 100%; transform: translate3d(0px, 0px, 0px);"><defs><clipPath id="__lottie_element_94"><rect width="607" height="607" x="0" y="0"></rect></clipPath></defs><g clip-path="url(#__lottie_element_94)"><g transform="matrix(-1,0,0,-1,303.50799560546875,414.27850341796875)" opacity="1" style="display: block;"><g opacity="1" transform="matrix(1,0,0,1,0,0)"><path stroke-linecap="butt" stroke-linejoin="miter" fill-opacity="0" stroke-miterlimit="10" stroke="#FFFFFF" stroke-opacity="1" stroke-width="20px" d=" M-210.9709930419922,120.15899658203125 C-210.9709930419922,120.15899658203125 -0.00800000037997961,-120.33300018310547 -0.00800000037997961,-120.33300018310547 C-0.00800000037997961,-120.33300018310547 210.9709930419922,120.33300018310547 210.9709930419922,120.33300018310547"></path></g></g><g style="display: none;" transform="matrix(-1,0,0,-1,426,323.91998291015625)" opacity="1"><g opacity="1" transform="matrix(1,0,0,1,0,0)"><path stroke-linecap="butt" stroke-linejoin="miter" fill-opacity="0" stroke-miterlimit="10" stroke="#FFFFFF" stroke-opacity="1" stroke-width="20px" d=" M112.26399993896484,244.7899932861328 C115.58200073242188,244.92599487304688 118.91799926757812,244.9969940185547 122.26899719238281,245"></path></g></g><g style="display: none;" transform="matrix(-1,0,0,-1,181,323.91998291015625)" opacity="1"><g opacity="1" transform="matrix(1,0,0,1,0,0)"><path stroke-linecap="butt" stroke-linejoin="miter" fill-opacity="0" stroke-miterlimit="10" stroke="#FFFFFF" stroke-opacity="1" stroke-width="20px" d=" M-112.26399993896484,244.7899932861328 C-115.58200073242188,244.92599487304688 -118.91799926757812,244.9969940185547 -122.26899719238281,245"></path></g></g><g style="display: none;" transform="matrix(-0.6474335193634033,-0.9598596692085266,0.9598596692085266,-0.6474335193634033,219.33364868164062,163.1382598876953)" opacity="1"><g opacity="1" transform="matrix(1,0,0,1,0,0)"><path stroke-linecap="butt" stroke-linejoin="miter" fill-opacity="0" stroke-miterlimit="10" stroke="#FFFFFF" stroke-opacity="1" stroke-width="5px" d=" M129.30299377441406,-19.18199920654297 C129.4600067138672,-17.027999877929688 129.59100341796875,-14.866999626159668 129.69500732421875,-12.699000358581543"></path></g></g><g style="display: none;" transform="matrix(0.9484142065048218,0.6640867590904236,-0.6640867590904236,0.9484142065048218,422.7938537597656,382.2122802734375)" opacity="1"><g opacity="1" transform="matrix(1,0,0,1,0,0)"><path stroke-linecap="butt" stroke-linejoin="miter" fill-opacity="0" stroke-miterlimit="10" stroke="#FFFFFF" stroke-opacity="1" stroke-width="5px" d=" M-110.81800079345703,-259.3030090332031 C-112.97200012207031,-259.4599914550781 -115.13300323486328,-259.59100341796875 -117.3010025024414,-259.69500732421875"></path></g></g><g style="display: none;" transform="matrix(-1,0,0,-1,303.50799560546875,304.24798583984375)" opacity="1"><g opacity="1" transform="matrix(1,0,0,1,0,0)"><path stroke-linecap="butt" stroke-linejoin="miter" fill-opacity="0" stroke-miterlimit="10" stroke="#FFFFFF" stroke-opacity="1" stroke-width="20px" d=" M-210.9709930419922,120.15899658203125 C-210.9709930419922,120.15899658203125 -0.00800000037997961,-120.33300018310547 -0.00800000037997961,-120.33300018310547 C-0.00800000037997961,-120.33300018310547 210.9709930419922,120.33300018310547 210.9709930419922,120.33300018310547"></path></g></g></g></svg>