<svg xmlns="http://www.w3.org/2000/svg" xmlns:xlink="http://www.w3.org/1999/xlink" version="1.1" id="Capa_1" x="0px" y="0px" viewBox="0 0 90.9 129.2" style="enable-background:new 0 0 90.9 129.2;" xml:space="preserve" width="90.9"  height="129.2" >
<style type="text/css">
	.st0{fill:#81948B;}
	.st1{fill:none;stroke:#81948B;stroke-width:2.3734;stroke-linecap:round;stroke-miterlimit:10;}
	.st2{fill:none;stroke:#81948B;stroke-width:2.263;stroke-linecap:round;stroke-miterlimit:10;}
</style>
<g>
	<g>
		<path class="st0" d="M30.7,16.3c2.5-0.4,5.1-0.8,7.7-1.2c1.7-0.2,2.8-1.2,3.6-2.7c1.1-2.2,2.2-4.5,3.4-6.9    c0.2,0.3,0.4,0.5,0.5,0.8c1,1.9,2,3.8,2.8,5.7c0.9,2.1,2.6,3,4.8,3.3s4.5,0.7,7,1c-0.4,0.4-0.6,0.7-0.9,1    c-1.4,1.4-2.8,2.8-4.3,4.2c-1.6,1.5-2,3.2-1.7,5.3c0.4,2.3,0.8,4.7,1.2,7.3c-1.2-0.6-2.2-1.2-3.2-1.7c-1.3-0.7-2.6-1.3-3.8-2    c-1.5-0.8-3-0.8-4.5,0c-1.8,0.9-3.6,1.9-5.3,2.8c-0.5,0.3-1,0.5-1.7,0.9c0.4-2.4,0.7-4.7,1.2-6.9c0.5-2.4-0.1-4.3-2-6    C33.7,19.6,32.2,17.9,30.7,16.3z M35.2,18c4.3,3.1,5.2,7.1,4,12c4.3-2.9,8.4-2.8,12.6,0c-1.4-4.9-0.2-8.9,3.9-12.1    c-5.2,0-8.5-2.6-10.3-7.4C43.7,15.5,40.3,17.8,35.2,18z"/>
	</g>
	<g>
		<path class="st0" d="M3.9,22.2c1.8-0.3,3.7-0.6,5.6-0.9c1.2-0.2,2-0.9,2.6-2c0.8-1.6,1.6-3.2,2.5-5c0.2,0.2,0.3,0.4,0.4,0.6    c0.7,1.4,1.4,2.7,2,4.1c0.7,1.5,1.9,2.2,3.5,2.4c1.6,0.2,3.2,0.5,5,0.7c-0.3,0.3-0.5,0.5-0.7,0.7c-1,1-2.1,2.1-3.1,3    c-1.2,1.1-1.5,2.3-1.2,3.8c0.3,1.7,0.6,3.4,0.9,5.3c-0.9-0.5-1.6-0.8-2.3-1.2c-0.9-0.5-1.9-1-2.8-1.4c-1.1-0.6-2.2-0.5-3.2,0    c-1.3,0.7-2.6,1.3-3.9,2c-0.4,0.2-0.7,0.4-1.2,0.6c0.3-1.8,0.5-3.4,0.8-5c0.4-1.8-0.1-3.1-1.4-4.4C6,24.7,5,23.4,3.9,22.2z     M7.8,23.6c2.8,2.1,3.5,4.7,2.6,7.9c2.8-1.9,5.5-1.9,8.3,0c-1-3.3-0.2-5.9,2.6-8c-3.5,0-5.6-1.7-6.8-4.9    C13.4,22,11.2,23.5,7.8,23.6z"/>
	</g>
	<g>
		<path class="st0" d="M65.5,22.2c1.8-0.3,3.7-0.6,5.6-0.9c1.2-0.2,2-0.9,2.6-2c0.8-1.6,1.6-3.2,2.5-5c0.2,0.2,0.3,0.4,0.4,0.6    c0.7,1.4,1.4,2.7,2,4.1c0.7,1.5,1.9,2.2,3.5,2.4c1.6,0.2,3.2,0.5,5,0.7c-0.3,0.3-0.5,0.5-0.7,0.7c-1,1-2.1,2.1-3.1,3    c-1.2,1.1-1.5,2.3-1.2,3.8c0.3,1.7,0.6,3.4,0.9,5.3c-0.9-0.5-1.6-0.8-2.3-1.2c-0.9-0.5-1.9-1-2.8-1.4c-1.1-0.6-2.2-0.5-3.2,0    c-1.3,0.7-2.6,1.3-3.9,2c-0.4,0.2-0.7,0.4-1.2,0.6c0.3-1.8,0.5-3.4,0.8-5c0.4-1.8-0.1-3.1-1.4-4.4C67.6,24.7,66.6,23.4,65.5,22.2z     M69.4,23.6c2.8,2.1,3.5,4.7,2.6,7.9c2.8-1.9,5.5-1.9,8.3,0c-1-3.3-0.2-5.9,2.6-8c-3.5,0-5.6-1.7-6.8-4.9    C75,22,72.8,23.5,69.4,23.6z"/>
	</g>
	<path class="st1" d="M6.9,122.4V46.8c0-3.3,2.7-6,6-6h65.3c3.3,0,6,2.7,6,6v75.6"/>
	<path class="st1" d="M26.6,122.5v-13.4c0-1.8,1.5-3.3,3.3-3.3h29.7c1.8,0,3.3,1.5,3.3,3.3v13.4"/>
	<path class="st2" d="M29.8,61.3h-7.6c-0.6,0-1.1-0.5-1.1-1.1v-7.6c0-0.6,0.5-1.1,1.1-1.1h7.6c0.6,0,1.1,0.5,1.1,1.1v7.6   C31,60.8,30.5,61.3,29.8,61.3z"/>
	<path class="st2" d="M49.2,61.3h-7.6c-0.6,0-1.1-0.5-1.1-1.1v-7.6c0-0.6,0.5-1.1,1.1-1.1h7.6c0.6,0,1.1,0.5,1.1,1.1v7.6   C50.3,60.8,49.8,61.3,49.2,61.3z"/>
	<path class="st2" d="M68.6,61.3H61c-0.6,0-1.1-0.5-1.1-1.1v-7.6c0-0.6,0.5-1.1,1.1-1.1h7.6c0.6,0,1.1,0.5,1.1,1.1v7.6   C69.7,60.8,69.2,61.3,68.6,61.3z"/>
	<path class="st2" d="M29.8,79.1h-7.6c-0.6,0-1.1-0.5-1.1-1.1v-7.6c0-0.6,0.5-1.1,1.1-1.1h7.6c0.6,0,1.1,0.5,1.1,1.1V78   C31,78.5,30.5,79.1,29.8,79.1z"/>
	<path class="st2" d="M49.2,79.1h-7.6c-0.6,0-1.1-0.5-1.1-1.1v-7.6c0-0.6,0.5-1.1,1.1-1.1h7.6c0.6,0,1.1,0.5,1.1,1.1V78   C50.3,78.5,49.8,79.1,49.2,79.1z"/>
	<path class="st2" d="M68.6,79.1H61c-0.6,0-1.1-0.5-1.1-1.1v-7.6c0-0.6,0.5-1.1,1.1-1.1h7.6c0.6,0,1.1,0.5,1.1,1.1V78   C69.7,78.5,69.2,79.1,68.6,79.1z"/>
	<path class="st2" d="M29.8,97.1h-7.6c-0.6,0-1.1-0.5-1.1-1.1v-7.6c0-0.6,0.5-1.1,1.1-1.1h7.6c0.6,0,1.1,0.5,1.1,1.1V96   C31,96.6,30.5,97.1,29.8,97.1z"/>
	<path class="st2" d="M49.2,97.1h-7.6c-0.6,0-1.1-0.5-1.1-1.1v-7.6c0-0.6,0.5-1.1,1.1-1.1h7.6c0.6,0,1.1,0.5,1.1,1.1V96   C50.3,96.6,49.8,97.1,49.2,97.1z"/>
	<path class="st2" d="M68.6,97.1H61c-0.6,0-1.1-0.5-1.1-1.1v-7.6c0-0.6,0.5-1.1,1.1-1.1h7.6c0.6,0,1.1,0.5,1.1,1.1V96   C69.7,96.6,69.2,97.1,68.6,97.1z"/>
</g>
</svg>