<?xml version="1.0" encoding="utf-8"?>
<!-- Generator: Adobe Illustrator 25.4.2, SVG Export Plug-In . SVG Version: 6.00 Build 0)  -->
<svg version="1.1" id="Capa_1" xmlns="http://www.w3.org/2000/svg" xmlns:xlink="http://www.w3.org/1999/xlink" x="0px" y="0px"
	 viewBox="0 0 125.2 123.5" style="enable-background:new 0 0 125.2 123.5;" xml:space="preserve">
<style type="text/css">
	.st0{fill:#81948B;}
	.st1{fill:none;stroke:#81948B;stroke-width:3;stroke-miterlimit:10;}
</style>
<g>
	<path class="st0" d="M71.4,59.5c-0.7,1.1-1.7,2.1-3,2.8s-2.8,1.2-4.5,1.4v4.9c0,0.4-0.1,0.7-0.4,0.9c-0.2,0.2-0.6,0.4-0.9,0.4
		c-0.4,0-0.7-0.1-0.9-0.4c-0.2-0.2-0.4-0.6-0.4-0.9v-4.9c-1.8-0.1-3.5-0.5-4.9-1.2c-1.5-0.7-2.9-1.7-4.2-3.1c-0.3-0.3-0.5-0.6-0.5-1
		s0.1-0.7,0.4-1c0.3-0.3,0.6-0.4,0.9-0.4c0.3,0,0.7,0.1,1,0.4c2,2.2,4.5,3.5,7.4,3.7V48.9c-2.7-0.8-4.8-1.9-6.3-3.1
		c-1.5-1.3-2.2-3.1-2.2-5.5c0-2.1,0.8-3.9,2.3-5.4s3.6-2.3,6.2-2.5V29c0-0.4,0.1-0.7,0.4-0.9c0.3-0.2,0.6-0.4,1-0.4s0.7,0.1,0.9,0.4
		c0.2,0.2,0.3,0.6,0.3,0.9v3.3c1.5,0.1,3,0.5,4.3,1.1s2.4,1.4,3.2,2.3c0.4,0.5,0.7,0.9,0.7,1.3c0,0.3-0.1,0.6-0.4,0.9
		c-0.3,0.3-0.6,0.4-1,0.4c-0.3,0-0.5-0.1-0.7-0.3c-0.7-0.8-1.5-1.5-2.6-2.1s-2.2-0.9-3.5-1v11.9c1.8,0.6,3.3,1.2,4.5,1.8
		c1.2,0.7,2.2,1.6,2.9,2.7c0.7,1.2,1.1,2.6,1.1,4.4C72.5,57.1,72.1,58.4,71.4,59.5z M57,43.6c1,0.9,2.4,1.6,4.3,2.3v-11
		c-1.7,0.2-3.1,0.8-4.2,1.7c-1,0.9-1.6,2.1-1.6,3.5C55.5,41.6,56,42.8,57,43.6z M68.1,59.3c1.1-0.9,1.6-2.1,1.6-3.5
		c0-1.5-0.5-2.7-1.5-3.6c-1-0.9-2.4-1.7-4.3-2.4v11.3C65.6,60.8,67,60.3,68.1,59.3z"/>
</g>
<g>
	<path class="st1" d="M11.7,50.6L56.5,76c0,0,5.6,4.9,14.2,0c8.1-4.6,45.3-26.1,45.3-26.1"/>
	<path class="st1" d="M104.3,40.1c4.7,3.5,7.9,6,7.9,6s3.8,2.3,3.7,5.9v58.2c0,3.1-2.5,5.5-5.5,5.5H16.3c-3.1,0-5.5-2.5-5.5-5.5V52
		c0-2.7,4.2-5.9,4.2-5.9l9-6.8"/>
	<path class="st1" d="M53,17.3l5-3.8c0,0,4.3-4.9,10.9,0c1.2,0.9,3.4,2.6,6.3,4.7"/>
	<path class="st1" d="M23.7,57.8V23.6c0-3.2,2.6-5.9,5.9-5.9h68.2c3.2,0,5.9,2.6,5.9,5.9v32.8"/>
</g>
</svg>
